<svg xmlns="http://www.w3.org/2000/svg" xmlns:xlink="http://www.w3.org/1999/xlink" viewBox="0 0 419.01 210.01"><defs><style>.cls-1{fill:none;}.cls-2{clip-path:url(#clip-path);}.cls-3{fill:#fff;}.cls-4{clip-path:url(#clip-path-2);}</style><clipPath id="clip-path"><rect class="cls-1" width="209.61" height="209.61"/></clipPath><clipPath id="clip-path-2"><polygon class="cls-1" points="209.52 0.52 209.52 210.01 419.01 210.01 209.52 0.52"/></clipPath></defs><g id="Layer_2" data-name="Layer 2"><g id="Слой_1" data-name="Слой 1"><g class="cls-2"><polyline class="cls-3" points="-264.55 -31.43 -258.72 -24.54 -253.95 -16.94 -250.6 -8.64 -248.48 0.2 -247.77 9.03 -247.07 16.27 -245.12 23.16 -241.94 29.52 -237.71 35.35 -232.41 40.13 -226.22 44.01 -219.51 46.49 -212.45 47.9 -205.21 47.9 -198.32 46.49 -191.61 44.01 -185.43 40.13 -180.13 35.35 -175.89 29.52 -172.53 23.16 -170.59 16.27 -170.06 9.03 -169.35 0.2 -167.23 -8.64 -163.7 -16.94 -159.11 -24.54 -153.28 -31.43 -146.39 -37.26 -138.8 -41.85 -130.5 -45.39 -121.67 -47.51 -112.84 -48.22 -103.83 -47.51 -95 -45.39 -86.7 -41.85 -79.1 -37.26 -72.21 -31.43 -66.39 -24.54 -61.79 -16.94 -58.26 -8.64 -56.14 0.2 -55.44 9.03 -54.91 16.27 -52.96 23.16 -49.78 29.52 -45.37 35.35 -40.07 40.13 -33.89 44.01 -27.35 46.49 -20.29 47.9 -13.05 47.9 -5.98 46.49 0.73 44.01 6.74 40.13 12.03 35.35 16.45 29.52 19.63 23.16 21.57 16.27 22.28 9.03 22.98 0.2 25.1 -8.64 28.46 -16.94 33.23 -24.54 39.06 -31.43 45.94 -37.26 53.54 -41.85 61.84 -45.39 70.49 -47.51 79.5 -48.22 88.51 -47.51 97.16 -45.39 105.47 -41.85 113.06 -37.26 119.95 -31.43 125.78 -24.54 130.54 -16.94 133.9 -8.64 136.02 0.2 136.73 9.03 137.43 16.27 139.38 23.16 142.55 29.52 146.97 35.35 152.27 40.13 158.27 44.01 164.99 46.49 172.05 47.9 179.29 47.9 186.36 46.49 192.89 44.01 199.07 40.13 204.37 35.35 208.79 29.52 211.97 23.16 213.91 16.27 214.62 9.03 215.32 0.2 217.26 -8.64 220.8 -16.94 225.39 -24.54 231.22 -31.43 238.1 -37.26 245.7 -41.85 254 -45.39 262.83 -47.51 271.84 -48.22 280.67 -47.51 289.5 -45.39 297.8 -41.85 305.4 -37.26 312.29 -31.43 318.11 -24.54 322.7 -16.94 326.24 -8.64 328.36 0.2 329.06 9.03 329.59 16.27 331.54 23.16 334.89 29.52 339.13 35.35 344.43 40.13 350.61 44.01 357.32 46.49 364.39 47.9 371.45 47.9 378.52 46.49 385.23 44.01 391.41 40.13 396.71 35.35 400.95 29.52 404.13 23.16 406.07 16.27 406.78 9.03 407.48 0.2 409.6 -8.64 412.96 -16.94 417.73 -24.54 423.56 -31.43 430.44 -37.26 438.04 -41.85 446.34 -45.39 454.99 -47.51 464 -48.22 473.01 -47.51 481.66 -45.39 489.96 -41.85 497.73 -37.26 504.45 -31.43 510.27 -24.54 515.04 -16.94 518.4 -8.64 520.52 0.2 521.23 9.03 521.93 16.27 523.87 23.16 527.05 29.52 531.47 35.35 536.77 40.13 542.77 44.01 549.48 46.49 556.55 47.9 563.79 47.9 570.85 46.49 577.57 44.01 583.57 40.13 588.87 35.35 593.28 29.52 596.46 23.16 598.41 16.27 599.11 9.03 599.82 0.2 601.76 -8.64 605.29 -16.94 610.06 -24.54 615.89 -31.43 622.6 -37.26 630.38 -41.85 638.68 -45.39 647.33 -47.51 656.34 -48.22 665.17 -47.51 674 -45.39 682.3 -41.85 689.89 -37.26 696.78 -31.43 702.61 -24.54 707.2 -16.94 710.74 -8.64 712.86 0.2 713.56 9.03 714.09 16.27 716.21 23.16 719.39 29.52 723.63 35.35 728.93 40.13 735.11 44.01 741.82 46.49 748.89 47.9 755.95 47.9 763.01 46.49 769.73 44.01 775.91 40.13 781.21 35.35 785.45 29.52 788.63 23.16 790.57 16.27 791.27 9.03 809.64 9.03 808.94 18.04 806.82 26.88 803.46 35 798.69 42.78 792.86 49.67 785.98 55.5 778.38 60.09 770.08 63.62 761.43 65.57 752.42 66.28 743.41 65.57 734.76 63.62 726.46 60.09 718.68 55.5 711.97 49.67 706.14 42.78 701.38 35 698.02 26.88 695.9 18.04 695.19 9.03 694.49 1.96 692.54 -4.93 689.37 -11.47 684.95 -17.12 679.65 -21.89 673.65 -25.78 666.93 -28.25 659.87 -29.66 652.63 -29.66 645.56 -28.25 639.03 -25.78 632.85 -21.89 627.55 -17.12 623.13 -11.47 619.95 -4.93 618.01 1.96 617.3 9.03 616.6 18.04 614.66 26.88 611.12 35 606.53 42.78 600.7 49.67 593.82 55.5 586.22 60.09 577.92 63.62 569.09 65.57 560.08 66.28 551.25 65.57 542.42 63.62 534.12 60.09 526.52 55.5 519.63 49.67 513.81 42.78 509.21 35 505.68 26.88 503.56 18.04 502.86 9.03 502.33 1.96 500.21 -4.93 497.03 -11.47 492.79 -17.12 487.49 -21.89 481.31 -25.78 474.6 -28.25 467.53 -29.66 460.47 -29.66 453.4 -28.25 446.69 -25.78 440.51 -21.89 435.21 -17.12 430.97 -11.47 427.79 -4.93 425.85 1.96 425.14 9.03 424.44 18.04 422.32 26.88 418.96 35 414.19 42.78 408.37 49.67 401.48 55.5 393.88 60.09 385.58 63.62 376.93 65.57 367.92 66.28 358.91 65.57 350.26 63.62 341.96 60.09 334.19 55.5 327.47 49.67 321.65 42.78 316.88 35 313.52 26.88 311.4 18.04 310.69 9.03 309.99 1.96 308.05 -4.93 304.87 -11.47 300.45 -17.12 295.15 -21.89 289.15 -25.78 282.44 -28.25 275.37 -29.66 268.13 -29.66 261.06 -28.25 254.35 -25.78 248.35 -21.89 243.05 -17.12 238.63 -11.47 235.46 -4.93 233.51 1.96 232.81 9.03 232.1 18.04 229.98 26.88 226.63 35 221.86 42.78 216.03 49.67 209.32 55.5 201.54 60.09 193.24 63.62 184.59 65.57 175.58 66.28 166.75 65.57 157.92 63.62 149.62 60.09 142.03 55.5 135.14 49.67 129.31 42.78 124.72 35 121.18 26.88 119.06 18.04 118.36 9.03 117.65 1.96 115.71 -4.93 112.53 -11.47 108.29 -17.12 102.99 -21.89 96.81 -25.78 90.1 -28.25 83.03 -29.66 75.97 -29.66 68.91 -28.25 62.19 -25.78 56.01 -21.89 50.71 -17.12 46.47 -11.47 43.3 -4.93 41.35 1.96 40.65 9.03 39.94 18.04 37.82 26.88 34.29 35 29.7 42.78 23.87 49.67 16.98 55.5 9.38 60.09 1.08 63.62 -7.75 65.57 -16.58 66.28 -25.59 65.57 -34.24 63.62 -42.54 60.09 -50.31 55.5 -57.02 49.67 -62.85 42.78 -67.62 35 -70.98 26.88 -73.1 18.04 -73.8 9.03 -74.51 1.96 -76.45 -4.93 -79.63 -11.47 -84.05 -17.12 -89.35 -21.89 -95.35 -25.78 -102.06 -28.25 -109.13 -29.66 -116.37 -29.66 -123.43 -28.25 -130.14 -25.78 -136.15 -21.89 -141.45 -17.12 -145.86 -11.47 -149.04 -4.93 -150.99 1.96 -151.69 9.03 -152.4 18.04 -154.52 26.88 -157.87 35 -162.64 42.78 -168.47 49.67 -175.18 55.5 -182.95 60.09 -191.25 63.62 -199.91 65.57 -208.92 66.28 -217.92 65.57 -226.58 63.62 -234.88 60.09 -242.47 55.5 -249.36 49.67 -255.19 42.78 -259.96 35 -263.31 26.88 -265.43 18.04 -266.14 9.03 -266.85 1.96 -268.79 -4.93"/><polyline class="cls-3" points="-264.55 83.06 -258.72 89.95 -253.95 97.55 -250.6 105.85 -248.48 114.69 -247.77 123.52 -247.07 130.76 -245.12 137.66 -241.94 144.01 -237.71 149.85 -232.41 154.62 -226.22 158.5 -219.51 160.98 -212.45 162.39 -205.21 162.39 -198.32 160.98 -191.61 158.5 -185.43 154.62 -180.13 149.85 -175.89 144.01 -172.53 137.66 -170.59 130.76 -170.06 123.52 -169.35 114.69 -167.23 105.85 -163.7 97.55 -159.11 89.95 -153.28 83.06 -146.39 77.23 -138.8 72.64 -130.5 69.1 -121.67 66.98 -112.84 66.28 -103.83 66.98 -95 69.1 -86.7 72.64 -79.1 77.23 -72.21 83.06 -66.39 89.95 -61.79 97.55 -58.26 105.85 -56.14 114.69 -55.44 123.52 -54.91 130.76 -52.96 137.66 -49.78 144.01 -45.37 149.85 -40.07 154.62 -33.89 158.5 -27.35 160.98 -20.29 162.39 -13.05 162.39 -5.98 160.98 0.73 158.5 6.74 154.62 12.03 149.85 16.45 144.01 19.63 137.66 21.57 130.76 22.28 123.52 22.98 114.69 25.1 105.85 28.46 97.55 33.23 89.95 39.06 83.06 45.94 77.23 53.54 72.64 61.84 69.1 70.49 66.98 79.5 66.28 88.51 66.98 97.16 69.1 105.47 72.64 113.06 77.23 119.95 83.06 125.78 89.95 130.54 97.55 133.9 105.85 136.02 114.69 136.73 123.52 137.43 130.76 139.38 137.66 142.55 144.01 146.97 149.85 152.27 154.62 158.27 158.5 164.99 160.98 172.05 162.39 179.29 162.39 186.36 160.98 192.89 158.5 199.07 154.62 204.37 149.85 208.79 144.01 211.97 137.66 213.91 130.76 214.62 123.52 215.32 114.69 217.26 105.85 220.8 97.55 225.39 89.95 231.22 83.06 238.1 77.23 245.7 72.64 254 69.1 262.83 66.98 271.84 66.28 280.67 66.98 289.5 69.1 297.8 72.64 305.4 77.23 312.29 83.06 318.11 89.95 322.7 97.55 326.24 105.85 328.36 114.69 329.06 123.52 329.59 130.76 331.54 137.66 334.89 144.01 339.13 149.85 344.43 154.62 350.61 158.5 357.32 160.98 364.39 162.39 371.45 162.39 378.52 160.98 385.23 158.5 391.41 154.62 396.71 149.85 400.95 144.01 404.13 137.66 406.07 130.76 406.78 123.52 407.48 114.69 409.6 105.85 412.96 97.55 417.73 89.95 423.56 83.06 430.44 77.23 438.04 72.64 446.34 69.1 454.99 66.98 464 66.28 473.01 66.98 481.66 69.1 489.96 72.64 497.73 77.23 504.45 83.06 510.27 89.95 515.04 97.55 518.4 105.85 520.52 114.69 521.23 123.52 521.93 130.76 523.87 137.66 527.05 144.01 531.47 149.85 536.77 154.62 542.77 158.5 549.48 160.98 556.55 162.39 563.79 162.39 570.85 160.98 577.57 158.5 583.57 154.62 588.87 149.85 593.28 144.01 596.46 137.66 598.41 130.76 599.11 123.52 599.82 114.69 601.76 105.85 605.29 97.55 610.06 89.95 615.89 83.06 622.6 77.23 630.38 72.64 638.68 69.1 647.33 66.98 656.34 66.28 665.17 66.98 674 69.1 682.3 72.64 689.89 77.23 696.78 83.06 702.61 89.95 707.2 97.55 710.74 105.85 712.86 114.69 713.56 123.52 714.09 130.76 716.21 137.66 719.39 144.01 723.63 149.85 728.93 154.62 735.11 158.5 741.82 160.98 748.89 162.39 755.95 162.39 763.01 160.98 769.73 158.5 775.91 154.62 781.21 149.85 785.45 144.01 788.63 137.66 790.57 130.76 791.27 123.52 809.64 123.52 808.94 132.53 806.82 141.37 803.46 149.67 798.69 157.27 792.86 164.16 785.98 169.99 778.38 174.58 770.08 178.12 761.43 180.24 752.42 180.94 743.41 180.24 734.76 178.12 726.46 174.58 718.68 169.99 711.97 164.16 706.14 157.27 701.38 149.67 698.02 141.37 695.9 132.53 695.19 123.52 694.49 116.45 692.54 109.56 689.37 103.2 684.95 97.37 679.65 92.6 673.65 88.71 666.93 86.24 659.87 84.83 652.63 84.83 645.56 86.24 639.03 88.71 632.85 92.6 627.55 97.37 623.13 103.2 619.95 109.56 618.01 116.45 617.3 123.52 616.6 132.53 614.66 141.37 611.12 149.67 606.53 157.27 600.7 164.16 593.82 169.99 586.22 174.58 577.92 178.12 569.09 180.24 560.08 180.94 551.25 180.24 542.42 178.12 534.12 174.58 526.52 169.99 519.63 164.16 513.81 157.27 509.21 149.67 505.68 141.37 503.56 132.53 502.86 123.52 502.33 116.45 500.21 109.56 497.03 103.2 492.79 97.37 487.49 92.6 481.31 88.71 474.6 86.24 467.53 84.83 460.47 84.83 453.4 86.24 446.69 88.71 440.51 92.6 435.21 97.37 430.97 103.2 427.79 109.56 425.85 116.45 425.14 123.52 424.44 132.53 422.32 141.37 418.96 149.67 414.19 157.27 408.37 164.16 401.48 169.99 393.88 174.58 385.58 178.12 376.93 180.24 367.92 180.94 358.91 180.24 350.26 178.12 341.96 174.58 334.19 169.99 327.47 164.16 321.65 157.27 316.88 149.67 313.52 141.37 311.4 132.53 310.69 123.52 309.99 116.45 308.05 109.56 304.87 103.2 300.45 97.37 295.15 92.6 289.15 88.71 282.44 86.24 275.37 84.83 268.13 84.83 261.06 86.24 254.35 88.71 248.35 92.6 243.05 97.37 238.63 103.2 235.46 109.56 233.51 116.45 232.81 123.52 232.1 132.53 229.98 141.37 226.63 149.67 221.86 157.27 216.03 164.16 209.32 169.99 201.54 174.58 193.24 178.12 184.59 180.24 175.58 180.94 166.75 180.24 157.92 178.12 149.62 174.58 142.03 169.99 135.14 164.16 129.31 157.27 124.72 149.67 121.18 141.37 119.06 132.53 118.36 123.52 117.65 116.45 115.71 109.56 112.53 103.2 108.29 97.37 102.99 92.6 96.81 88.71 90.1 86.24 83.03 84.83 75.97 84.83 68.91 86.24 62.19 88.71 56.01 92.6 50.71 97.37 46.47 103.2 43.3 109.56 41.35 116.45 40.65 123.52 39.94 132.53 37.82 141.37 34.29 149.67 29.7 157.27 23.87 164.16 16.98 169.99 9.38 174.58 1.08 178.12 -7.75 180.24 -16.58 180.94 -25.59 180.24 -34.24 178.12 -42.54 174.58 -50.31 169.99 -57.02 164.16 -62.85 157.27 -67.62 149.67 -70.98 141.37 -73.1 132.53 -73.8 123.52 -74.51 116.45 -76.45 109.56 -79.63 103.2 -84.05 97.37 -89.35 92.6 -95.35 88.71 -102.06 86.24 -109.13 84.83 -116.37 84.83 -123.43 86.24 -130.14 88.71 -136.15 92.6 -141.45 97.37 -145.86 103.2 -149.04 109.56 -150.99 116.45 -151.69 123.52 -152.4 132.53 -154.52 141.37 -157.87 149.67 -162.64 157.27 -168.47 164.16 -175.18 169.99 -182.95 174.58 -191.25 178.12 -199.91 180.24 -208.92 180.94 -217.92 180.24 -226.58 178.12 -234.88 174.58 -242.47 169.99 -249.36 164.16 -255.19 157.27 -259.96 149.67 -263.31 141.37 -265.43 132.53 -266.14 123.52 -266.85 116.45 -268.79 109.56"/><polyline class="cls-3" points="-264.55 197.55 -258.72 204.44 -253.95 212.04 -250.6 220.34 -248.48 229.18 -247.77 238.19 -247.07 245.25 -245.12 252.15 -241.94 258.68 -237.71 264.34 -232.41 269.11 -226.22 272.99 -219.51 275.47 -212.45 276.88 -205.21 276.88 -198.32 275.47 -191.61 272.99 -185.43 269.11 -180.13 264.34 -175.89 258.68 -172.53 252.15 -170.59 245.25 -170.06 238.19 -169.35 229.18 -167.23 220.34 -163.7 212.04 -159.11 204.44 -153.28 197.55 -146.39 191.72 -138.8 187.13 -130.5 183.59 -121.67 181.65 -112.84 180.94 -103.83 181.65 -95 183.59 -86.7 187.13 -79.1 191.72 -72.21 197.55 -66.39 204.44 -61.79 212.04 -58.26 220.34 -56.14 229.18 -55.44 238.19 -54.91 245.25 -52.96 252.15 -49.78 258.68 -45.37 264.34 -40.07 269.11 -33.89 272.99 -27.35 275.47 -20.29 276.88 -13.05 276.88 -5.98 275.47 0.73 272.99 6.74 269.11 12.03 264.34 16.45 258.68 19.63 252.15 21.57 245.25 22.28 238.19 22.98 229.18 25.1 220.34 28.46 212.04 33.23 204.44 39.06 197.55 45.94 191.72 53.54 187.13 61.84 183.59 70.49 181.65 79.5 180.94 88.51 181.65 97.16 183.59 105.47 187.13 113.06 191.72 119.95 197.55 125.78 204.44 130.54 212.04 133.9 220.34 136.02 229.18 136.73 238.19 137.43 245.25 139.38 252.15 142.55 258.68 146.97 264.34 152.27 269.11 158.27 272.99 164.99 275.47 172.05 276.88 179.29 276.88 186.36 275.47 192.89 272.99 199.07 269.11 204.37 264.34 208.79 258.68 211.97 252.15 213.91 245.25 214.62 238.19 215.32 229.18 217.26 220.34 220.8 212.04 225.39 204.44 231.22 197.55 238.1 191.72 245.7 187.13 254 183.59 262.83 181.65 271.84 180.94 280.67 181.65 289.5 183.59 297.8 187.13 305.4 191.72 312.29 197.55 318.11 204.44 322.7 212.04 326.24 220.34 328.36 229.18 329.06 238.19 329.59 245.25 331.54 252.15 334.89 258.68 339.13 264.34 344.43 269.11 350.61 272.99 357.32 275.47 364.39 276.88 371.45 276.88 378.52 275.47 385.23 272.99 391.41 269.11 396.71 264.34 400.95 258.68 404.13 252.15 406.07 245.25 406.78 238.19 407.48 229.18 409.6 220.34 412.96 212.04 417.73 204.44 423.56 197.55 430.44 191.72 438.04 187.13 446.34 183.59 454.99 181.65 464 180.94 473.01 181.65 481.66 183.59 489.96 187.13 497.73 191.72 504.45 197.55 510.27 204.44 515.04 212.04 518.4 220.34 520.52 229.18 521.23 238.19 521.93 245.25 523.87 252.15 527.05 258.68 531.47 264.34 536.77 269.11 542.77 272.99 549.48 275.47 556.55 276.88 563.79 276.88 570.85 275.47 577.57 272.99 583.57 269.11 588.87 264.34 593.28 258.68 596.46 252.15 598.41 245.25 599.11 238.19 599.82 229.18 601.76 220.34 605.29 212.04 610.06 204.44 615.89 197.55 622.6 191.72 630.38 187.13 638.68 183.59 647.33 181.65 656.34 180.94 665.17 181.65 674 183.59 682.3 187.13 689.89 191.72 696.78 197.55 702.61 204.44 707.2 212.04 710.74 220.34 712.86 229.18 713.56 238.19 714.09 245.25 716.21 252.15 719.39 258.68 723.63 264.34 728.93 269.11 735.11 272.99 741.82 275.47 748.89 276.88 755.95 276.88 763.01 275.47 769.73 272.99 775.91 269.11 781.21 264.34 785.45 258.68 788.63 252.15 790.57 245.25 791.27 238.19 809.64 238.19 808.94 247.02 806.82 255.85 803.46 264.16 798.69 271.76 792.86 278.65 785.98 284.48 778.38 289.07 770.08 292.61 761.43 294.73 752.42 295.43 743.41 294.73 734.76 292.61 726.46 289.07 718.68 284.48 711.97 278.65 706.14 271.76 701.38 264.16 698.02 255.85 695.9 247.02 695.19 238.19 694.49 230.94 692.54 224.05 689.37 217.69 684.95 211.86 679.65 207.09 673.65 203.2 666.93 200.73 659.87 199.32 652.63 199.32 645.56 200.73 639.03 203.2 632.85 207.09 627.55 211.86 623.13 217.69 619.95 224.05 618.01 230.94 617.3 238.19 616.6 247.02 614.66 255.85 611.12 264.16 606.53 271.76 600.7 278.65 593.82 284.48 586.22 289.07 577.92 292.61 569.09 294.73 560.08 295.43 551.25 294.73 542.42 292.61 534.12 289.07 526.52 284.48 519.63 278.65 513.81 271.76 509.21 264.16 505.68 255.85 503.56 247.02 502.86 238.19 502.33 230.94 500.21 224.05 497.03 217.69 492.79 211.86 487.49 207.09 481.31 203.2 474.6 200.73 467.53 199.32 460.47 199.32 453.4 200.73 446.69 203.2 440.51 207.09 435.21 211.86 430.97 217.69 427.79 224.05 425.85 230.94 425.14 238.19 424.44 247.02 422.32 255.85 418.96 264.16 414.19 271.76 408.37 278.65 401.48 284.48 393.88 289.07 385.58 292.61 376.93 294.73 367.92 295.43 358.91 294.73 350.26 292.61 341.96 289.07 334.19 284.48 327.47 278.65 321.65 271.76 316.88 264.16 313.52 255.85 311.4 247.02 310.69 238.19 309.99 230.94 308.05 224.05 304.87 217.69 300.45 211.86 295.15 207.09 289.15 203.2 282.44 200.73 275.37 199.32 268.13 199.32 261.06 200.73 254.35 203.2 248.35 207.09 243.05 211.86 238.63 217.69 235.46 224.05 233.51 230.94 232.81 238.19 232.1 247.02 229.98 255.85 226.63 264.16 221.86 271.76 216.03 278.65 209.32 284.48 201.54 289.07 193.24 292.61 184.59 294.73 175.58 295.43 166.75 294.73 157.92 292.61 149.62 289.07 142.03 284.48 135.14 278.65 129.31 271.76 124.72 264.16 121.18 255.85 119.06 247.02 118.36 238.19 117.65 230.94 115.71 224.05 112.53 217.69 108.29 211.86 102.99 207.09 96.81 203.2 90.1 200.73 83.03 199.32 75.97 199.32 68.91 200.73 62.19 203.2 56.01 207.09 50.71 211.86 46.47 217.69 43.3 224.05 41.35 230.94 40.65 238.19 39.94 247.02 37.82 255.85 34.29 264.16 29.7 271.76 23.87 278.65 16.98 284.48 9.38 289.07 1.08 292.61 -7.75 294.73 -16.58 295.43 -25.59 294.73 -34.24 292.61 -42.54 289.07 -50.31 284.48 -57.02 278.65 -62.85 271.76 -67.62 264.16 -70.98 255.85 -73.1 247.02 -73.8 238.19 -74.51 230.94 -76.45 224.05 -79.63 217.69 -84.05 211.86 -89.35 207.09 -95.35 203.2 -102.06 200.73 -109.13 199.32 -116.37 199.32 -123.43 200.73 -130.14 203.2 -136.15 207.09 -141.45 211.86 -145.86 217.69 -149.04 224.05 -150.99 230.94 -151.69 238.19 -152.4 247.02 -154.52 255.85 -157.87 264.16 -162.64 271.76 -168.47 278.65 -175.18 284.48 -182.95 289.07 -191.25 292.61 -199.91 294.73 -208.92 295.43 -217.92 294.73 -226.58 292.61 -234.88 289.07 -242.47 284.48 -249.36 278.65 -255.19 271.76 -259.96 264.16 -263.31 255.85 -265.43 247.02 -266.14 238.19 -266.85 230.94 -268.79 224.05"/></g><g class="cls-4"><polygon class="cls-3" points="84.27 -928.57 108.67 -928.57 1030.01 -7.2 1030.01 17.17 84.27 -928.57"/><polygon class="cls-3" points="35.54 -928.57 59.9 -928.57 1030.01 41.54 1030.01 65.9 35.54 -928.57"/><polygon class="cls-3" points="-13.2 -928.57 11.17 -928.57 1030.01 90.27 1030.01 114.64 -13.2 -928.57"/><polygon class="cls-3" points="-62.15 -928.57 -37.78 -928.57 1030.01 139 1030.01 163.37 -62.15 -928.57"/><polygon class="cls-3" points="-110.88 -928.57 -86.52 -928.57 1030.01 187.74 1030.01 212.1 -110.88 -928.57"/><polygon class="cls-3" points="-159.58 -928.57 -135.25 -928.57 1030.01 236.47 1030.01 260.84 -159.58 -928.57"/><polygon class="cls-3" points="-184.68 -928.57 -183.95 -928.57 1030.01 285.17 1030.01 286.12 1006.59 286.12 -184.68 -904.93 -184.68 -928.57"/><polygon class="cls-3" points="-184.68 -880.57 982.23 286.12 957.86 286.12 -184.68 -856.2 -184.68 -880.57"/><polygon class="cls-3" points="-184.68 -831.83 933.49 286.12 909.12 286.12 -184.68 -807.47 -184.68 -831.83"/><polygon class="cls-3" points="-184.68 -783.1 884.76 286.12 860.39 286.12 -184.68 -758.73 -184.68 -783.1"/><polygon class="cls-3" points="-184.68 -734.36 836.02 286.12 811.66 286.12 -184.68 -710 -184.68 -734.36"/><polygon class="cls-3" points="-184.68 -685.63 787.29 286.12 762.92 286.12 -184.68 -661.26 -184.68 -685.63"/><polygon class="cls-3" points="-184.68 -636.9 738.56 286.12 714.19 286.12 -184.68 -612.53 -184.68 -636.9"/><polygon class="cls-3" points="-184.68 -588.16 689.82 286.12 665.46 286.12 -184.68 -563.79 -184.68 -588.16"/><polygon class="cls-3" points="-184.68 -539.43 641.09 286.12 616.72 286.12 -184.68 -515.06 -184.68 -539.43"/><polygon class="cls-3" points="-184.68 -490.69 592.35 286.12 567.99 286.12 -184.68 -466.33 -184.68 -490.69"/><polygon class="cls-3" points="-184.68 -441.96 543.62 286.12 519.25 286.12 -184.68 -417.59 -184.68 -441.96"/><polygon class="cls-3" points="-184.68 -393.23 494.89 286.12 470.52 286.12 -184.68 -368.86 -184.68 -393.23"/><polygon class="cls-3" points="-184.68 -344.49 446.15 286.12 421.79 286.12 -184.68 -320.13 -184.68 -344.49"/><polygon class="cls-3" points="-184.68 -295.76 397.2 286.12 372.83 286.12 -184.68 -271.39 -184.68 -295.76"/><polygon class="cls-3" points="-184.68 -247.03 348.46 286.12 324.1 286.12 -184.68 -222.66 -184.68 -247.03"/><polygon class="cls-3" points="-184.68 -198.29 299.73 286.12 275.37 286.12 -184.68 -173.93 -184.68 -198.29"/><polygon class="cls-3" points="-184.68 -149.56 251 286.12 226.63 286.12 -184.68 -125.19 -184.68 -149.56"/><polygon class="cls-3" points="-184.68 -100.82 202.26 286.12 177.9 286.12 -184.68 -76.46 -184.68 -100.82"/><polygon class="cls-3" points="-184.68 -52.09 153.53 286.12 129.16 286.12 -184.68 -27.72 -184.68 -52.09"/><polygon class="cls-3" points="-184.68 -3.36 104.8 286.12 80.43 286.12 -184.68 21.01 -184.68 -3.36"/><polygon class="cls-3" points="-184.68 45.38 56.06 286.12 31.7 286.12 -184.68 69.74 -184.68 45.38"/><polygon class="cls-3" points="-184.68 94.11 7.33 286.12 -17.07 286.12 -184.68 118.48 -184.68 94.11"/></g></g></g></svg>